<?xml version="1.0" encoding="iso-8859-1"?>
<!-- Generator: Adobe Illustrator 16.0.0, SVG Export Plug-In . SVG Version: 6.00 Build 0)  -->
<!DOCTYPE svg PUBLIC "-//W3C//DTD SVG 1.1//EN" "http://www.w3.org/Graphics/SVG/1.1/DTD/svg11.dtd">
<svg version="1.1" id="Capa_1" xmlns="http://www.w3.org/2000/svg" xmlns:xlink="http://www.w3.org/1999/xlink" x="0px" y="0px"
	 width="592.996px" height="592.996px" viewBox="0 0 592.996 592.996" style="enable-background:new 0 0 592.996 592.996;"
	 xml:space="preserve">
<g>
	<g>
		<g>
			<path d="M569.076,243.564L359.213,101V58.106c0-31.764-25.842-57.606-57.605-57.606h-10.759
				c-31.765,0-57.606,25.842-57.606,57.606v43.263L23.921,243.564c-11.75,7.981-18.778,21.267-18.767,35.471l0.199,256.659
				c0.024,31.322,25.526,56.803,56.848,56.803h468.594c31.322,0,56.824-25.48,56.848-56.803l0.199-256.659
				C587.854,264.831,580.824,251.545,569.076,243.564z M276.082,58.106c0-8.155,6.612-14.766,14.767-14.766h10.757
				c8.156,0,14.768,6.611,14.768,14.766v20.755v45.186v108.517c0,6.76,5.48,12.24,12.24,12.24h25.576
				c14.646,0,20.922,18.595,9.273,27.47l-56.814,48.049c-2.877,2.494-6.451,3.742-10.025,3.742c-3.576,0-7.151-1.248-10.027-3.744
				l-56.854-48.106c-12.805-10.719-5.245-27.41,9.351-27.41h24.747c6.76,0,12.24-5.48,12.24-12.24V124.327V78.991L276.082,58.106
				L276.082,58.106z M233.242,153.158v49.082c-10.104,0.962-19.681,4.417-27.979,10.134c-9.948,6.854-17.373,16.439-21.471,27.721
				c-8.365,23.025-1.163,48.475,18.347,64.878l56.639,47.926c10.535,9.033,23.962,14.004,37.847,14.004
				c13.878,0,27.298-4.965,37.831-13.99l56.082-47.43c9.689-7.744,16.512-18.057,19.764-29.91
				c3.072-11.198,2.719-22.977-1.023-34.065c-3.742-11.087-10.6-20.672-19.83-27.717c-8.816-6.729-19.184-10.699-30.234-11.621
				V152.79l173.672,117.979L313.594,445.732c-10.066,7.984-24.125,7.984-34.144,0.037l-219.338-175L233.242,153.158z
				 M544.803,535.66c-0.006,7.73-6.275,13.996-14.008,13.996H62.201c-7.732,0-14.001-6.266-14.007-13.996l-0.171-219.732
				l204.756,163.367c12.384,9.824,27.911,15.236,43.719,15.236c15.808,0,31.335-5.412,43.767-15.273L544.975,315.93L544.803,535.66z
				"/>
			<path d="M530.795,592.996H62.201c-31.598,0-57.324-25.706-57.348-57.303L4.654,279.035c-0.011-14.386,7.086-27.801,18.986-35.885
				l209.102-142.046V58.106C232.742,26.066,258.809,0,290.849,0h10.759c32.039,0,58.105,26.066,58.105,58.106v42.63L569.357,243.15
				c11.899,8.084,18.996,21.499,18.984,35.885l-0.199,256.658C588.119,567.29,562.393,592.996,530.795,592.996z M290.849,1
				c-31.489,0-57.106,25.618-57.106,57.106v43.528L24.202,243.978c-11.625,7.897-18.559,21.002-18.548,35.057l0.199,256.659
				c0.024,31.045,25.301,56.303,56.348,56.303h468.594c31.047,0,56.324-25.258,56.348-56.303l0.199-256.659
				c0.012-14.054-6.922-27.159-18.547-35.057L358.713,101.265V58.106C358.713,26.618,333.096,1,301.607,1H290.849z M530.795,550.156
				H62.201c-7.993,0-14.501-6.503-14.507-14.496l-0.172-220.771l205.569,164.016c12.296,9.754,27.712,15.127,43.407,15.127
				s31.128-5.386,43.457-15.165l205.521-163.976l-0.173,220.77C545.297,543.653,538.788,550.156,530.795,550.156z M48.524,316.967
				l0.17,218.693c0.006,7.441,6.065,13.496,13.507,13.496h468.594c7.442,0,13.502-6.055,13.508-13.496l0.171-218.691
				l-203.896,162.68c-12.505,9.92-28.159,15.383-44.079,15.383s-31.556-5.449-44.03-15.345L48.524,316.967z M296.483,452.226
				c-6.254,0-12.414-2.154-17.344-6.064L59.27,270.737l174.472-118.523v50.48l-0.453,0.043c-9.989,0.951-19.582,4.425-27.743,10.048
				c-9.862,6.794-17.222,16.297-21.285,27.48c-8.288,22.812-1.144,48.062,18.199,64.324l56.641,47.927
				c10.444,8.955,23.769,13.886,37.523,13.886c13.748,0,27.067-4.926,37.506-13.87l56.084-47.432
				c9.613-7.683,16.388-17.936,19.604-29.66c3.046-11.102,2.695-22.78-1.015-33.773c-3.71-10.992-10.509-20.495-19.66-27.479
				c-8.681-6.625-19.045-10.609-29.973-11.52l-0.458-0.039v-50.785l175.014,118.891l-0.53,0.423L313.905,446.123
				C308.944,450.059,302.757,452.226,296.483,452.226z M60.954,270.801l218.808,174.578c4.752,3.77,10.691,5.847,16.721,5.847
				c6.049,0,12.016-2.09,16.8-5.885L532.043,270.8l-172.33-117.066v47.978c10.949,0.999,21.326,5.033,30.038,11.682
				c9.31,7.106,16.226,16.772,20,27.954c3.773,11.183,4.131,23.063,1.032,34.357c-3.273,11.929-10.166,22.361-19.934,30.168
				l-56.071,47.421c-10.617,9.098-24.168,14.108-38.154,14.108c-13.993,0-27.549-5.017-38.172-14.124l-56.636-47.924
				c-19.667-16.535-26.927-42.219-18.494-65.431c4.134-11.38,11.623-21.049,21.657-27.962c8.178-5.634,17.768-9.147,27.763-10.175
				v-47.684L60.954,270.801z M296.624,324.564c-3.805,0-7.482-1.373-10.354-3.866l-56.85-48.103
				c-5.948-4.979-8.129-11.724-5.834-18.042c2.262-6.227,8.35-10.25,15.508-10.25h24.747c6.474,0,11.74-5.267,11.74-11.74V58.106
				c0.001-8.418,6.85-15.266,15.268-15.266h10.757c8.419,0,15.268,6.848,15.268,15.266v174.457c0,6.473,5.267,11.74,11.74,11.74
				h25.576c6.891,0,12.768,4.218,14.971,10.747c2.204,6.528,0.087,13.445-5.395,17.621l-56.794,48.033
				C304.102,323.192,300.425,324.564,296.624,324.564z M239.093,245.304c-6.733,0-12.452,3.765-14.568,9.592
				c-2.146,5.905-0.075,12.236,5.539,16.935l56.856,48.108c2.696,2.34,6.141,3.626,9.704,3.626c3.561,0,7.004-1.285,9.698-3.62
				l56.818-48.053c5.154-3.927,7.138-10.406,5.073-16.521s-7.568-10.067-14.023-10.067h-25.576c-7.025,0-12.74-5.715-12.74-12.74
				V58.106c0-7.866-6.4-14.266-14.268-14.266h-10.757c-7.867,0-14.267,6.4-14.267,14.266l-0.001,174.458
				c0,7.025-5.715,12.74-12.74,12.74H239.093z"/>
		</g>
	</g>
</g>
<g>
</g>
<g>
</g>
<g>
</g>
<g>
</g>
<g>
</g>
<g>
</g>
<g>
</g>
<g>
</g>
<g>
</g>
<g>
</g>
<g>
</g>
<g>
</g>
<g>
</g>
<g>
</g>
<g>
</g>
</svg>
